<?xml version="1.0" encoding="UTF-8"?>
<svg xmlns="http://www.w3.org/2000/svg" xmlns:xlink="http://www.w3.org/1999/xlink" width="px" height="px" viewBox="0 0 10 8" version="1.1">
<g id="surface1">
<path style=" stroke:none;fill-rule:nonzero;fill:rgb(70.196078%,70.196078%,70.196078%);fill-opacity:1;" d="M 4.375 5.230469 C 4.09375 5.230469 3.929688 5.070312 3.929688 4.789062 L 3.929688 4.460938 C 2.75 4.378906 1.578125 4.136719 0.355469 3.667969 L 0.355469 3 C 1.855469 3.664062 3.359375 3.902344 4.996094 3.902344 C 6.636719 3.902344 8.140625 3.664062 9.644531 3 L 9.644531 3.667969 C 8.421875 4.136719 7.246094 4.378906 6.070312 4.460938 L 6.070312 4.789062 C 6.070312 5.070312 5.90625 5.230469 5.625 5.230469 Z M 1.597656 7.925781 L 8.402344 7.925781 C 9.234375 7.925781 9.644531 7.519531 9.644531 6.6875 L 9.644531 2.746094 C 9.644531 1.914062 9.234375 1.511719 8.402344 1.511719 L 1.597656 1.511719 C 0.769531 1.511719 0.355469 1.914062 0.355469 2.746094 L 0.355469 6.6875 C 0.355469 7.519531 0.769531 7.925781 1.597656 7.925781 Z M 2.964844 1.863281 L 3.585938 1.863281 L 3.585938 1.144531 C 3.585938 0.835938 3.765625 0.664062 4.078125 0.664062 L 5.921875 0.664062 C 6.234375 0.664062 6.410156 0.835938 6.410156 1.144531 L 6.410156 1.855469 L 7.03125 1.855469 L 7.03125 1.191406 C 7.03125 0.429688 6.632812 0.0703125 5.910156 0.0703125 L 4.085938 0.0703125 C 3.402344 0.0703125 2.964844 0.429688 2.964844 1.191406 Z M 2.964844 1.863281 "/>
</g>
</svg>
