<?xml version="1.0" encoding="UTF-8"?>
<svg xmlns="http://www.w3.org/2000/svg" xmlns:xlink="http://www.w3.org/1999/xlink" width="px" height="px" viewBox="0 0 12 12" version="1.1">
<g id="surface1">
<path style=" stroke:none;fill-rule:nonzero;fill:rgb(34.901961%,34.901961%,35.294118%);fill-opacity:1;" d="M 6 7.441406 C 6.828125 7.441406 7.5 6.796875 7.5 6 C 7.5 5.203125 6.828125 4.558594 6 4.558594 C 5.171875 4.558594 4.5 5.203125 4.5 6 C 4.5 6.796875 5.171875 7.441406 6 7.441406 Z M 6 7.441406 "/>
<path style=" stroke:none;fill-rule:evenodd;fill:rgb(34.901961%,34.901961%,35.294118%);fill-opacity:1;" d="M 0.664062 5.734375 C 1.40625 3.589844 3.515625 2.039062 6 2.039062 C 8.484375 2.039062 10.59375 3.585938 11.339844 5.730469 C 11.398438 5.90625 11.398438 6.09375 11.339844 6.265625 C 10.59375 8.410156 8.484375 9.960938 6 9.960938 C 3.515625 9.960938 1.40625 8.414062 0.664062 6.269531 C 0.601562 6.09375 0.601562 5.90625 0.664062 5.734375 Z M 8.625 6 C 8.625 7.390625 7.449219 8.519531 6 8.519531 C 4.550781 8.519531 3.375 7.390625 3.375 6 C 3.375 4.609375 4.550781 3.480469 6 3.480469 C 7.449219 3.480469 8.625 4.609375 8.625 6 Z M 8.625 6 "/>
</g>
</svg>
