<svg width="102" height="27" viewBox="0 0 102 27" fill="none" xmlns="http://www.w3.org/2000/svg">
<path d="M6.50033 13.6751L13.0003 7.17513L19.5003 13.6751L13.0003 20.1751L6.50033 13.6751Z" fill="#CAFF33"/>
<path d="M23.8337 9.3418L19.5003 13.6751V7.17513H13.0003L17.3337 2.8418H23.8337V9.3418Z" fill="#CAFF33"/>
<path d="M23.8337 18.0085L19.5003 13.6751V20.1751H13.0003L17.3337 24.5085H23.8337V18.0085Z" fill="#CAFF33"/>
<path d="M2.16699 18.0085L6.50033 13.6751V20.1751H13.0003L8.66699 24.5085H2.16699L2.16699 18.0085Z" fill="#CAFF33"/>
<path d="M2.16699 9.3418L6.50033 13.6751V7.17513H13.0003L8.66699 2.8418H2.16699L2.16699 9.3418Z" fill="#CAFF33"/>
<path d="M38.8713 8L34.877 15.0531V19.6994H32.9944V15.0531L29 8H31.1445L33.9439 13.1812L36.7268 8H38.8713Z" fill="white"/>
<path d="M42.2219 19.9167C41.0214 19.9167 40.001 19.4933 39.1606 18.6464C38.3203 17.7996 37.9001 16.7578 37.9001 15.521C37.9001 14.2842 38.3203 13.2424 39.1606 12.3956C40.001 11.5488 41.0214 11.1254 42.2219 11.1254C43.4333 11.1254 44.4537 11.5488 45.2832 12.3956C46.1235 13.2424 46.5437 14.2842 46.5437 15.521C46.5437 16.7578 46.1235 17.7996 45.2832 18.6464C44.4537 19.4933 43.4333 19.9167 42.2219 19.9167ZM40.4048 17.4097C40.8959 17.9111 41.5016 18.1618 42.2219 18.1618C42.9422 18.1618 43.5479 17.9111 44.039 17.4097C44.5301 16.9083 44.7757 16.2787 44.7757 15.521C44.7757 14.7634 44.5301 14.1338 44.039 13.6324C43.5479 13.131 42.9422 12.8803 42.2219 12.8803C41.5016 12.8803 40.8959 13.131 40.4048 13.6324C39.9137 14.1338 39.6681 14.7634 39.6681 15.521C39.6681 16.2787 39.9137 16.9083 40.4048 17.4097Z" fill="white"/>
<path d="M53.6592 11.3427H55.4272V19.6994H53.6592V18.6297C53.1244 19.4877 52.2786 19.9167 51.1218 19.9167C50.1832 19.9167 49.4247 19.6103 48.8463 18.9974C48.2679 18.3846 47.9786 17.5434 47.9786 16.4737V11.3427H49.7466V16.2899C49.7466 16.9138 49.9104 17.3929 50.2378 17.7272C50.5652 18.0615 51.0126 18.2286 51.5801 18.2286C52.2022 18.2286 52.7042 18.0336 53.0862 17.6436C53.4682 17.2425 53.6592 16.6353 53.6592 15.8219V11.3427Z" fill="white"/>
<path d="M59.2626 12.7466C59.71 11.7104 60.5504 11.1923 61.7836 11.1923V13.1477C61.107 13.1032 60.5176 13.2703 60.0156 13.6491C59.5136 14.0168 59.2626 14.6297 59.2626 15.4876V19.6994H57.4946V11.3427H59.2626V12.7466Z" fill="white"/>
<path d="M69.9491 13.6324C70.4511 13.8998 70.844 14.2675 71.1278 14.7355C71.4115 15.2035 71.5534 15.7439 71.5534 16.3567C71.5534 17.3149 71.2205 18.1116 70.5548 18.7467C69.8891 19.3818 69.076 19.6994 68.1156 19.6994H63.2045V8H67.7555C68.694 8 69.4853 8.31198 70.1292 8.93595C70.784 9.54878 71.1114 10.3176 71.1114 11.2424C71.1114 12.2564 70.724 13.053 69.9491 13.6324ZM67.7555 9.80505H65.0871V12.8803H67.7555C68.1702 12.8803 68.5194 12.7355 68.8032 12.4458C69.0869 12.1449 69.2288 11.7772 69.2288 11.3427C69.2288 10.9081 69.0869 10.546 68.8032 10.2563C68.5194 9.95547 68.1702 9.80505 67.7555 9.80505ZM68.1156 17.8943C68.5522 17.8943 68.9178 17.7384 69.2124 17.4264C69.518 17.1032 69.6708 16.7133 69.6708 16.2564C69.6708 15.7996 69.518 15.4152 69.2124 15.1032C68.9178 14.7801 68.5522 14.6185 68.1156 14.6185H65.0871V17.8943H68.1156Z" fill="white"/>
<path d="M79.6442 11.3427H81.4122V19.6994H79.6442V18.496C78.9785 19.4431 78.0235 19.9167 76.7794 19.9167C75.6553 19.9167 74.6949 19.4933 73.8982 18.6464C73.1015 17.7885 72.7032 16.7467 72.7032 15.521C72.7032 14.2842 73.1015 13.2424 73.8982 12.3956C74.6949 11.5488 75.6553 11.1254 76.7794 11.1254C78.0235 11.1254 78.9785 11.5934 79.6442 12.5293V11.3427ZM75.2078 17.4431C75.6989 17.9445 76.3156 18.1952 77.0577 18.1952C77.7998 18.1952 78.4164 17.9445 78.9075 17.4431C79.3987 16.9305 79.6442 16.2899 79.6442 15.521C79.6442 14.7522 79.3987 14.1171 78.9075 13.6157C78.4164 13.1032 77.7998 12.8469 77.0577 12.8469C76.3156 12.8469 75.6989 13.1032 75.2078 13.6157C74.7167 14.1171 74.4712 14.7522 74.4712 15.521C74.4712 16.2899 74.7167 16.9305 75.2078 17.4431Z" fill="white"/>
<path d="M87.7784 11.1254C88.7169 11.1254 89.4754 11.4318 90.0539 12.0446C90.6323 12.6575 90.9215 13.4987 90.9215 14.5684V19.6994H89.1535V14.7522C89.1535 14.1283 88.9898 13.6491 88.6624 13.3149C88.335 12.9806 87.8875 12.8135 87.32 12.8135C86.6979 12.8135 86.1959 13.014 85.8139 13.4151C85.4319 13.8051 85.241 14.4068 85.241 15.2202V19.6994H83.473V11.3427H85.241V12.4123C85.7757 11.5544 86.6215 11.1254 87.7784 11.1254Z" fill="white"/>
<path d="M101.583 19.6994H99.3406L94.8224 14.1338V19.6994H92.9398V8H94.8224V13.248L99.1769 8H101.42L96.7868 13.6993L101.583 19.6994Z" fill="white"/>
</svg>
