<?xml version="1.0" encoding="UTF-8"?>
<svg xmlns="http://www.w3.org/2000/svg" xmlns:xlink="http://www.w3.org/1999/xlink" width="px" height="px" viewBox="0 0 79 21" version="1.1">
<g id="surface1">
<path style=" stroke:none;fill-rule:nonzero;fill:rgb(79.215686%,100%,20%);fill-opacity:1;" d="M 5.0625 10.242188 L 10.128906 5.121094 L 15.191406 10.242188 L 10.128906 15.367188 Z M 5.0625 10.242188 "/>
<path style=" stroke:none;fill-rule:nonzero;fill:rgb(79.215686%,100%,20%);fill-opacity:1;" d="M 18.570312 6.828125 L 15.191406 10.242188 L 15.191406 5.121094 L 10.128906 5.121094 L 13.503906 1.707031 L 18.570312 1.707031 Z M 18.570312 6.828125 "/>
<path style=" stroke:none;fill-rule:nonzero;fill:rgb(79.215686%,100%,20%);fill-opacity:1;" d="M 18.570312 13.660156 L 15.191406 10.242188 L 15.191406 15.367188 L 10.128906 15.367188 L 13.503906 18.78125 L 18.570312 18.78125 Z M 18.570312 13.660156 "/>
<path style=" stroke:none;fill-rule:nonzero;fill:rgb(79.215686%,100%,20%);fill-opacity:1;" d="M 1.6875 13.660156 L 5.0625 10.242188 L 5.0625 15.367188 L 10.128906 15.367188 L 6.753906 18.78125 L 1.6875 18.78125 Z M 1.6875 13.660156 "/>
<path style=" stroke:none;fill-rule:nonzero;fill:rgb(79.215686%,100%,20%);fill-opacity:1;" d="M 1.6875 6.828125 L 5.0625 10.242188 L 5.0625 5.121094 L 10.128906 5.121094 L 6.753906 1.707031 L 1.6875 1.707031 Z M 1.6875 6.828125 "/>
<path style=" stroke:none;fill-rule:nonzero;fill:rgb(100%,100%,100%);fill-opacity:1;" d="M 30.058594 5.804688 L 26.945312 11.363281 L 26.945312 15.023438 L 25.480469 15.023438 L 25.480469 11.363281 L 22.367188 5.804688 L 24.039062 5.804688 L 26.21875 9.886719 L 28.386719 5.804688 Z M 30.058594 5.804688 "/>
<path style=" stroke:none;fill-rule:nonzero;fill:rgb(100%,100%,100%);fill-opacity:1;" d="M 32.667969 15.195312 C 31.734375 15.195312 30.9375 14.863281 30.28125 14.195312 C 29.628906 13.527344 29.300781 12.707031 29.300781 11.730469 C 29.300781 10.757812 29.628906 9.9375 30.28125 9.269531 C 30.9375 8.601562 31.734375 8.269531 32.667969 8.269531 C 33.613281 8.269531 34.40625 8.601562 35.050781 9.269531 C 35.707031 9.9375 36.035156 10.757812 36.035156 11.730469 C 36.035156 12.707031 35.707031 13.527344 35.050781 14.195312 C 34.40625 14.863281 33.613281 15.195312 32.667969 15.195312 Z M 31.253906 13.21875 C 31.632812 13.613281 32.105469 13.8125 32.667969 13.8125 C 33.230469 13.8125 33.699219 13.613281 34.082031 13.21875 C 34.464844 12.824219 34.65625 12.328125 34.65625 11.730469 C 34.65625 11.132812 34.464844 10.636719 34.082031 10.242188 C 33.699219 9.847656 33.230469 9.652344 32.667969 9.652344 C 32.105469 9.652344 31.632812 9.847656 31.253906 10.242188 C 30.871094 10.636719 30.679688 11.132812 30.679688 11.730469 C 30.679688 12.328125 30.871094 12.824219 31.253906 13.21875 Z M 31.253906 13.21875 "/>
<path style=" stroke:none;fill-rule:nonzero;fill:rgb(100%,100%,100%);fill-opacity:1;" d="M 41.578125 8.4375 L 42.957031 8.4375 L 42.957031 15.023438 L 41.578125 15.023438 L 41.578125 14.179688 C 41.160156 14.855469 40.503906 15.195312 39.601562 15.195312 C 38.871094 15.195312 38.28125 14.953125 37.828125 14.472656 C 37.378906 13.988281 37.152344 13.324219 37.152344 12.480469 L 37.152344 8.4375 L 38.53125 8.4375 L 38.53125 12.335938 C 38.53125 12.828125 38.65625 13.207031 38.914062 13.46875 C 39.167969 13.734375 39.515625 13.863281 39.957031 13.863281 C 40.441406 13.863281 40.835938 13.710938 41.132812 13.402344 C 41.429688 13.085938 41.578125 12.609375 41.578125 11.96875 Z M 41.578125 8.4375 "/>
<path style=" stroke:none;fill-rule:nonzero;fill:rgb(100%,100%,100%);fill-opacity:1;" d="M 45.945312 9.546875 C 46.292969 8.730469 46.949219 8.320312 47.90625 8.320312 L 47.90625 9.859375 C 47.382812 9.824219 46.921875 9.957031 46.53125 10.257812 C 46.140625 10.546875 45.945312 11.027344 45.945312 11.703125 L 45.945312 15.023438 L 44.566406 15.023438 L 44.566406 8.4375 L 45.945312 8.4375 Z M 45.945312 9.546875 "/>
<path style=" stroke:none;fill-rule:nonzero;fill:rgb(100%,100%,100%);fill-opacity:1;" d="M 54.269531 10.242188 C 54.660156 10.453125 54.964844 10.742188 55.1875 11.113281 C 55.410156 11.480469 55.519531 11.90625 55.519531 12.390625 C 55.519531 13.144531 55.261719 13.773438 54.742188 14.273438 C 54.222656 14.773438 53.589844 15.023438 52.839844 15.023438 L 49.015625 15.023438 L 49.015625 5.804688 L 52.5625 5.804688 C 53.292969 5.804688 53.910156 6.050781 54.410156 6.542969 C 54.921875 7.023438 55.175781 7.632812 55.175781 8.359375 C 55.175781 9.160156 54.875 9.785156 54.269531 10.242188 Z M 52.5625 7.226562 L 50.480469 7.226562 L 50.480469 9.652344 L 52.5625 9.652344 C 52.882812 9.652344 53.15625 9.535156 53.378906 9.308594 C 53.597656 9.070312 53.707031 8.78125 53.707031 8.4375 C 53.707031 8.097656 53.597656 7.8125 53.378906 7.582031 C 53.15625 7.347656 52.882812 7.226562 52.5625 7.226562 Z M 52.839844 13.601562 C 53.179688 13.601562 53.464844 13.480469 53.695312 13.234375 C 53.933594 12.976562 54.050781 12.671875 54.050781 12.3125 C 54.050781 11.949219 53.933594 11.648438 53.695312 11.402344 C 53.464844 11.148438 53.179688 11.019531 52.839844 11.019531 L 50.480469 11.019531 L 50.480469 13.601562 Z M 52.839844 13.601562 "/>
<path style=" stroke:none;fill-rule:nonzero;fill:rgb(100%,100%,100%);fill-opacity:1;" d="M 61.824219 8.4375 L 63.199219 8.4375 L 63.199219 15.023438 L 61.824219 15.023438 L 61.824219 14.074219 C 61.304688 14.820312 60.5625 15.195312 59.589844 15.195312 C 58.714844 15.195312 57.96875 14.863281 57.347656 14.195312 C 56.726562 13.519531 56.414062 12.695312 56.414062 11.730469 C 56.414062 10.757812 56.726562 9.9375 57.347656 9.269531 C 57.96875 8.601562 58.714844 8.269531 59.589844 8.269531 C 60.5625 8.269531 61.304688 8.636719 61.824219 9.375 Z M 58.367188 13.246094 C 58.75 13.640625 59.230469 13.839844 59.808594 13.839844 C 60.386719 13.839844 60.867188 13.640625 61.25 13.246094 C 61.632812 12.84375 61.824219 12.335938 61.824219 11.730469 C 61.824219 11.125 61.632812 10.625 61.25 10.230469 C 60.867188 9.824219 60.386719 9.625 59.808594 9.625 C 59.230469 9.625 58.75 9.824219 58.367188 10.230469 C 57.984375 10.625 57.792969 11.125 57.792969 11.730469 C 57.792969 12.335938 57.984375 12.84375 58.367188 13.246094 Z M 58.367188 13.246094 "/>
<path style=" stroke:none;fill-rule:nonzero;fill:rgb(100%,100%,100%);fill-opacity:1;" d="M 68.160156 8.269531 C 68.890625 8.269531 69.484375 8.507812 69.933594 8.992188 C 70.382812 9.476562 70.609375 10.136719 70.609375 10.980469 L 70.609375 15.023438 L 69.230469 15.023438 L 69.230469 11.125 C 69.230469 10.632812 69.105469 10.257812 68.847656 9.992188 C 68.59375 9.730469 68.246094 9.597656 67.804688 9.597656 C 67.320312 9.597656 66.925781 9.753906 66.628906 10.070312 C 66.332031 10.378906 66.183594 10.851562 66.183594 11.496094 L 66.183594 15.023438 L 64.804688 15.023438 L 64.804688 8.4375 L 66.183594 8.4375 L 66.183594 9.28125 C 66.601562 8.605469 67.257812 8.269531 68.160156 8.269531 Z M 68.160156 8.269531 "/>
<path style=" stroke:none;fill-rule:nonzero;fill:rgb(100%,100%,100%);fill-opacity:1;" d="M 78.914062 15.023438 L 77.167969 15.023438 L 73.648438 10.636719 L 73.648438 15.023438 L 72.183594 15.023438 L 72.183594 5.804688 L 73.648438 5.804688 L 73.648438 9.941406 L 77.039062 5.804688 L 78.789062 5.804688 L 75.179688 10.296875 Z M 78.914062 15.023438 "/>
</g>
</svg>
