<?xml version="1.0" encoding="UTF-8"?>
<svg xmlns="http://www.w3.org/2000/svg" xmlns:xlink="http://www.w3.org/1999/xlink" width="px" height="px" viewBox="0 0 60 16" version="1.1">
<g id="surface1">
<path style=" stroke:none;fill-rule:nonzero;fill:rgb(79.215686%,100%,20%);fill-opacity:1;" d="M 3.847656 7.804688 L 7.691406 3.933594 L 11.539062 7.804688 L 7.691406 11.675781 Z M 3.847656 7.804688 "/>
<path style=" stroke:none;fill-rule:nonzero;fill:rgb(79.215686%,100%,20%);fill-opacity:1;" d="M 14.101562 5.226562 L 11.539062 7.804688 L 11.539062 3.933594 L 7.691406 3.933594 L 10.257812 1.355469 L 14.101562 1.355469 Z M 14.101562 5.226562 "/>
<path style=" stroke:none;fill-rule:nonzero;fill:rgb(79.215686%,100%,20%);fill-opacity:1;" d="M 14.101562 10.386719 L 11.539062 7.804688 L 11.539062 11.675781 L 7.691406 11.675781 L 10.257812 14.257812 L 14.101562 14.257812 Z M 14.101562 10.386719 "/>
<path style=" stroke:none;fill-rule:nonzero;fill:rgb(79.215686%,100%,20%);fill-opacity:1;" d="M 1.28125 10.386719 L 3.847656 7.804688 L 3.847656 11.675781 L 7.691406 11.675781 L 5.128906 14.257812 L 1.28125 14.257812 Z M 1.28125 10.386719 "/>
<path style=" stroke:none;fill-rule:nonzero;fill:rgb(79.215686%,100%,20%);fill-opacity:1;" d="M 1.28125 5.226562 L 3.847656 7.804688 L 3.847656 3.933594 L 7.691406 3.933594 L 5.128906 1.355469 L 1.28125 1.355469 Z M 1.28125 5.226562 "/>
<path style=" stroke:none;fill-rule:nonzero;fill:rgb(100%,100%,100%);fill-opacity:1;" d="M 22.828125 4.453125 L 20.464844 8.652344 L 20.464844 11.417969 L 19.351562 11.417969 L 19.351562 8.652344 L 16.988281 4.453125 L 18.257812 4.453125 L 19.914062 7.539062 L 21.558594 4.453125 Z M 22.828125 4.453125 "/>
<path style=" stroke:none;fill-rule:nonzero;fill:rgb(100%,100%,100%);fill-opacity:1;" d="M 24.8125 11.546875 C 24.101562 11.546875 23.496094 11.296875 23 10.792969 C 22.503906 10.289062 22.253906 9.667969 22.253906 8.929688 C 22.253906 8.195312 22.503906 7.574219 23 7.070312 C 23.496094 6.566406 24.101562 6.3125 24.8125 6.3125 C 25.527344 6.3125 26.132812 6.566406 26.621094 7.070312 C 27.121094 7.574219 27.367188 8.195312 27.367188 8.929688 C 27.367188 9.667969 27.121094 10.289062 26.621094 10.792969 C 26.132812 11.296875 25.527344 11.546875 24.8125 11.546875 Z M 23.734375 10.054688 C 24.027344 10.355469 24.382812 10.503906 24.8125 10.503906 C 25.238281 10.503906 25.59375 10.355469 25.886719 10.054688 C 26.175781 9.757812 26.320312 9.382812 26.320312 8.929688 C 26.320312 8.480469 26.175781 8.105469 25.886719 7.804688 C 25.59375 7.507812 25.238281 7.359375 24.8125 7.359375 C 24.382812 7.359375 24.027344 7.507812 23.734375 7.804688 C 23.445312 8.105469 23.300781 8.480469 23.300781 8.929688 C 23.300781 9.382812 23.445312 9.757812 23.734375 10.054688 Z M 23.734375 10.054688 "/>
<path style=" stroke:none;fill-rule:nonzero;fill:rgb(100%,100%,100%);fill-opacity:1;" d="M 31.578125 6.441406 L 32.625 6.441406 L 32.625 11.417969 L 31.578125 11.417969 L 31.578125 10.78125 C 31.261719 11.292969 30.761719 11.546875 30.078125 11.546875 C 29.523438 11.546875 29.074219 11.367188 28.730469 11 C 28.386719 10.636719 28.21875 10.136719 28.21875 9.496094 L 28.21875 6.441406 L 29.261719 6.441406 L 29.261719 9.386719 C 29.261719 9.761719 29.359375 10.046875 29.554688 10.246094 C 29.746094 10.445312 30.011719 10.542969 30.347656 10.542969 C 30.714844 10.542969 31.011719 10.425781 31.238281 10.195312 C 31.464844 9.957031 31.578125 9.59375 31.578125 9.109375 Z M 31.578125 6.441406 "/>
<path style=" stroke:none;fill-rule:nonzero;fill:rgb(100%,100%,100%);fill-opacity:1;" d="M 34.894531 7.277344 C 35.160156 6.660156 35.65625 6.351562 36.386719 6.351562 L 36.386719 7.515625 C 35.984375 7.492188 35.636719 7.589844 35.339844 7.816406 C 35.042969 8.035156 34.894531 8.398438 34.894531 8.910156 L 34.894531 11.417969 L 33.847656 11.417969 L 33.847656 6.441406 L 34.894531 6.441406 Z M 34.894531 7.277344 "/>
<path style=" stroke:none;fill-rule:nonzero;fill:rgb(100%,100%,100%);fill-opacity:1;" d="M 41.21875 7.804688 C 41.515625 7.964844 41.746094 8.183594 41.914062 8.460938 C 42.082031 8.742188 42.167969 9.0625 42.167969 9.429688 C 42.167969 10 41.96875 10.472656 41.574219 10.851562 C 41.183594 11.230469 40.699219 11.417969 40.132812 11.417969 L 37.226562 11.417969 L 37.226562 4.453125 L 39.917969 4.453125 C 40.476562 4.453125 40.941406 4.636719 41.324219 5.007812 C 41.710938 5.375 41.90625 5.832031 41.90625 6.382812 C 41.90625 6.988281 41.675781 7.460938 41.21875 7.804688 Z M 39.917969 5.527344 L 38.339844 5.527344 L 38.339844 7.359375 L 39.917969 7.359375 C 40.164062 7.359375 40.371094 7.273438 40.539062 7.097656 C 40.707031 6.921875 40.792969 6.699219 40.792969 6.441406 C 40.792969 6.183594 40.707031 5.96875 40.539062 5.796875 C 40.371094 5.617188 40.164062 5.527344 39.917969 5.527344 Z M 40.132812 10.34375 C 40.390625 10.34375 40.605469 10.25 40.78125 10.066406 C 40.960938 9.871094 41.054688 9.640625 41.054688 9.367188 C 41.054688 9.097656 40.960938 8.867188 40.78125 8.683594 C 40.605469 8.488281 40.390625 8.394531 40.132812 8.394531 L 38.339844 8.394531 L 38.339844 10.34375 Z M 40.132812 10.34375 "/>
<path style=" stroke:none;fill-rule:nonzero;fill:rgb(100%,100%,100%);fill-opacity:1;" d="M 46.953125 6.441406 L 48 6.441406 L 48 11.417969 L 46.953125 11.417969 L 46.953125 10.703125 C 46.558594 11.265625 45.996094 11.546875 45.257812 11.546875 C 44.59375 11.546875 44.027344 11.296875 43.554688 10.792969 C 43.082031 10.28125 42.847656 9.660156 42.847656 8.929688 C 42.847656 8.195312 43.082031 7.574219 43.554688 7.070312 C 44.027344 6.566406 44.59375 6.3125 45.257812 6.3125 C 45.996094 6.3125 46.558594 6.589844 46.953125 7.148438 Z M 44.328125 10.074219 C 44.621094 10.375 44.984375 10.523438 45.421875 10.523438 C 45.863281 10.523438 46.226562 10.375 46.519531 10.074219 C 46.808594 9.769531 46.953125 9.386719 46.953125 8.929688 C 46.953125 8.472656 46.808594 8.09375 46.519531 7.796875 C 46.226562 7.492188 45.863281 7.339844 45.421875 7.339844 C 44.984375 7.339844 44.621094 7.492188 44.328125 7.796875 C 44.039062 8.09375 43.894531 8.472656 43.894531 8.929688 C 43.894531 9.386719 44.039062 9.769531 44.328125 10.074219 Z M 44.328125 10.074219 "/>
<path style=" stroke:none;fill-rule:nonzero;fill:rgb(100%,100%,100%);fill-opacity:1;" d="M 51.765625 6.3125 C 52.324219 6.3125 52.769531 6.496094 53.113281 6.859375 C 53.457031 7.226562 53.628906 7.726562 53.628906 8.363281 L 53.628906 11.417969 L 52.582031 11.417969 L 52.582031 8.472656 C 52.582031 8.101562 52.484375 7.816406 52.289062 7.617188 C 52.097656 7.417969 51.832031 7.316406 51.496094 7.316406 C 51.128906 7.316406 50.832031 7.4375 50.605469 7.675781 C 50.378906 7.910156 50.265625 8.265625 50.265625 8.75 L 50.265625 11.417969 L 49.21875 11.417969 L 49.21875 6.441406 L 50.265625 6.441406 L 50.265625 7.078125 C 50.582031 6.570312 51.082031 6.3125 51.765625 6.3125 Z M 51.765625 6.3125 "/>
<path style=" stroke:none;fill-rule:nonzero;fill:rgb(100%,100%,100%);fill-opacity:1;" d="M 59.9375 11.417969 L 58.609375 11.417969 L 55.933594 8.105469 L 55.933594 11.417969 L 54.820312 11.417969 L 54.820312 4.453125 L 55.933594 4.453125 L 55.933594 7.578125 L 58.511719 4.453125 L 59.839844 4.453125 L 57.097656 7.847656 Z M 59.9375 11.417969 "/>
</g>
</svg>
