<?xml version="1.0" encoding="UTF-8"?>
<svg xmlns="http://www.w3.org/2000/svg" xmlns:xlink="http://www.w3.org/1999/xlink" width="px" height="px" viewBox="0 0 52 14" version="1.1">
<g id="surface1">
<path style=" stroke:none;fill-rule:nonzero;fill:rgb(79.215686%,100%,20%);fill-opacity:1;" d="M 3.3125 7.089844 L 6.628906 3.71875 L 9.941406 7.089844 L 6.628906 10.460938 Z M 3.3125 7.089844 "/>
<path style=" stroke:none;fill-rule:nonzero;fill:rgb(79.215686%,100%,20%);fill-opacity:1;" d="M 12.152344 4.84375 L 9.941406 7.089844 L 9.941406 3.71875 L 6.628906 3.71875 L 8.835938 1.472656 L 12.152344 1.472656 Z M 12.152344 4.84375 "/>
<path style=" stroke:none;fill-rule:nonzero;fill:rgb(79.215686%,100%,20%);fill-opacity:1;" d="M 12.152344 9.335938 L 9.941406 7.089844 L 9.941406 10.460938 L 6.628906 10.460938 L 8.835938 12.707031 L 12.152344 12.707031 Z M 12.152344 9.335938 "/>
<path style=" stroke:none;fill-rule:nonzero;fill:rgb(79.215686%,100%,20%);fill-opacity:1;" d="M 1.105469 9.335938 L 3.3125 7.089844 L 3.3125 10.460938 L 6.628906 10.460938 L 4.417969 12.707031 L 1.105469 12.707031 Z M 1.105469 9.335938 "/>
<path style=" stroke:none;fill-rule:nonzero;fill:rgb(79.215686%,100%,20%);fill-opacity:1;" d="M 1.105469 4.84375 L 3.3125 7.089844 L 3.3125 3.71875 L 6.628906 3.71875 L 4.417969 1.472656 L 1.105469 1.472656 Z M 1.105469 4.84375 "/>
<path style=" stroke:none;fill-rule:nonzero;fill:rgb(100%,100%,100%);fill-opacity:1;" d="M 19.816406 4.148438 L 17.78125 7.804688 L 17.78125 10.214844 L 16.820312 10.214844 L 16.820312 7.804688 L 14.785156 4.148438 L 15.878906 4.148438 L 17.304688 6.835938 L 18.722656 4.148438 Z M 19.816406 4.148438 "/>
<path style=" stroke:none;fill-rule:nonzero;fill:rgb(100%,100%,100%);fill-opacity:1;" d="M 21.523438 10.328125 C 20.914062 10.328125 20.394531 10.109375 19.964844 9.667969 C 19.535156 9.230469 19.320312 8.6875 19.320312 8.046875 C 19.320312 7.40625 19.535156 6.867188 19.964844 6.425781 C 20.394531 5.988281 20.914062 5.769531 21.523438 5.769531 C 22.140625 5.769531 22.664062 5.988281 23.085938 6.425781 C 23.515625 6.867188 23.726562 7.40625 23.726562 8.046875 C 23.726562 8.6875 23.515625 9.230469 23.085938 9.667969 C 22.664062 10.109375 22.140625 10.328125 21.523438 10.328125 Z M 20.597656 9.027344 C 20.847656 9.289062 21.15625 9.417969 21.523438 9.417969 C 21.890625 9.417969 22.199219 9.289062 22.453125 9.027344 C 22.703125 8.765625 22.828125 8.441406 22.828125 8.046875 C 22.828125 7.65625 22.703125 7.328125 22.453125 7.070312 C 22.199219 6.808594 21.890625 6.679688 21.523438 6.679688 C 21.15625 6.679688 20.847656 6.808594 20.597656 7.070312 C 20.347656 7.328125 20.222656 7.65625 20.222656 8.046875 C 20.222656 8.441406 20.347656 8.765625 20.597656 9.027344 Z M 20.597656 9.027344 "/>
<path style=" stroke:none;fill-rule:nonzero;fill:rgb(100%,100%,100%);fill-opacity:1;" d="M 27.355469 5.882812 L 28.257812 5.882812 L 28.257812 10.214844 L 27.355469 10.214844 L 27.355469 9.660156 C 27.082031 10.105469 26.652344 10.328125 26.0625 10.328125 C 25.582031 10.328125 25.195312 10.167969 24.902344 9.851562 C 24.605469 9.53125 24.460938 9.097656 24.460938 8.542969 L 24.460938 5.882812 L 25.359375 5.882812 L 25.359375 8.445312 C 25.359375 8.769531 25.445312 9.019531 25.613281 9.191406 C 25.777344 9.363281 26.007812 9.453125 26.296875 9.453125 C 26.613281 9.453125 26.867188 9.351562 27.0625 9.148438 C 27.257812 8.941406 27.355469 8.625 27.355469 8.203125 Z M 27.355469 5.882812 "/>
<path style=" stroke:none;fill-rule:nonzero;fill:rgb(100%,100%,100%);fill-opacity:1;" d="M 30.210938 6.609375 C 30.441406 6.070312 30.867188 5.804688 31.496094 5.804688 L 31.496094 6.816406 C 31.152344 6.792969 30.851562 6.882812 30.597656 7.078125 C 30.339844 7.269531 30.210938 7.585938 30.210938 8.03125 L 30.210938 10.214844 L 29.3125 10.214844 L 29.3125 5.882812 L 30.210938 5.882812 Z M 30.210938 6.609375 "/>
<path style=" stroke:none;fill-rule:nonzero;fill:rgb(100%,100%,100%);fill-opacity:1;" d="M 35.660156 7.070312 C 35.917969 7.207031 36.117188 7.398438 36.261719 7.640625 C 36.40625 7.882812 36.476562 8.164062 36.476562 8.480469 C 36.476562 8.976562 36.308594 9.390625 35.96875 9.71875 C 35.628906 10.050781 35.214844 10.214844 34.726562 10.214844 L 32.222656 10.214844 L 32.222656 4.148438 L 34.542969 4.148438 C 35.019531 4.148438 35.425781 4.308594 35.753906 4.632812 C 36.085938 4.953125 36.253906 5.351562 36.253906 5.828125 C 36.253906 6.355469 36.054688 6.769531 35.660156 7.070312 Z M 34.542969 5.085938 L 33.183594 5.085938 L 33.183594 6.679688 L 34.542969 6.679688 C 34.753906 6.679688 34.929688 6.605469 35.074219 6.453125 C 35.222656 6.296875 35.292969 6.105469 35.292969 5.882812 C 35.292969 5.65625 35.222656 5.46875 35.074219 5.316406 C 34.929688 5.160156 34.753906 5.085938 34.542969 5.085938 Z M 34.726562 9.277344 C 34.949219 9.277344 35.132812 9.199219 35.285156 9.035156 C 35.441406 8.867188 35.519531 8.667969 35.519531 8.429688 C 35.519531 8.191406 35.441406 7.992188 35.285156 7.832031 C 35.132812 7.664062 34.949219 7.578125 34.726562 7.578125 L 33.183594 7.578125 L 33.183594 9.277344 Z M 34.726562 9.277344 "/>
<path style=" stroke:none;fill-rule:nonzero;fill:rgb(100%,100%,100%);fill-opacity:1;" d="M 40.601562 5.882812 L 41.503906 5.882812 L 41.503906 10.214844 L 40.601562 10.214844 L 40.601562 9.589844 C 40.261719 10.082031 39.777344 10.328125 39.140625 10.328125 C 38.570312 10.328125 38.078125 10.109375 37.671875 9.667969 C 37.265625 9.222656 37.0625 8.683594 37.0625 8.046875 C 37.0625 7.40625 37.265625 6.867188 37.671875 6.425781 C 38.078125 5.988281 38.570312 5.769531 39.140625 5.769531 C 39.777344 5.769531 40.261719 6.011719 40.601562 6.496094 Z M 38.339844 9.042969 C 38.589844 9.304688 38.90625 9.433594 39.285156 9.433594 C 39.664062 9.433594 39.976562 9.304688 40.226562 9.042969 C 40.476562 8.777344 40.601562 8.445312 40.601562 8.046875 C 40.601562 7.648438 40.476562 7.320312 40.226562 7.058594 C 39.976562 6.792969 39.664062 6.660156 39.285156 6.660156 C 38.90625 6.660156 38.589844 6.792969 38.339844 7.058594 C 38.089844 7.320312 37.964844 7.648438 37.964844 8.046875 C 37.964844 8.445312 38.089844 8.777344 38.339844 9.042969 Z M 38.339844 9.042969 "/>
<path style=" stroke:none;fill-rule:nonzero;fill:rgb(100%,100%,100%);fill-opacity:1;" d="M 44.75 5.769531 C 45.226562 5.769531 45.613281 5.925781 45.910156 6.246094 C 46.203125 6.5625 46.351562 7 46.351562 7.554688 L 46.351562 10.214844 L 45.449219 10.214844 L 45.449219 7.648438 C 45.449219 7.324219 45.367188 7.078125 45.199219 6.902344 C 45.035156 6.730469 44.804688 6.644531 44.515625 6.644531 C 44.199219 6.644531 43.941406 6.746094 43.75 6.957031 C 43.554688 7.15625 43.457031 7.46875 43.457031 7.890625 L 43.457031 10.214844 L 42.554688 10.214844 L 42.554688 5.882812 L 43.457031 5.882812 L 43.457031 6.4375 C 43.730469 5.992188 44.160156 5.769531 44.75 5.769531 Z M 44.75 5.769531 "/>
<path style=" stroke:none;fill-rule:nonzero;fill:rgb(100%,100%,100%);fill-opacity:1;" d="M 51.789062 10.214844 L 50.644531 10.214844 L 48.339844 7.328125 L 48.339844 10.214844 L 47.382812 10.214844 L 47.382812 4.148438 L 48.339844 4.148438 L 48.339844 6.871094 L 50.5625 4.148438 L 51.703125 4.148438 L 49.34375 7.101562 Z M 51.789062 10.214844 "/>
</g>
</svg>
